<?xml version="1.0" standalone="no"?>
<!DOCTYPE svg PUBLIC "-//W3C//DTD SVG 20010904//EN"
 "http://www.w3.org/TR/2001/REC-SVG-20010904/DTD/svg10.dtd">
<svg version="1.0" xmlns="http://www.w3.org/2000/svg"
 width="500.000000pt" height="175.000000pt" viewBox="0 0 500.000000 175.000000"
 preserveAspectRatio="xMidYMid meet">

<g transform="translate(0.000000,175.000000) scale(0.100000,-0.100000)"
fill="#000000" stroke="none">
<path d="M1275 1718 c-122 -41 -169 -55 -240 -69 -33 -6 -72 -18 -87 -25 -15
-8 -47 -14 -71 -14 -24 0 -70 -9 -103 -20 -94 -33 -266 -73 -303 -71 -19 1
-59 -6 -89 -14 -30 -9 -62 -13 -71 -9 -9 3 -38 8 -65 10 -40 2 -52 -1 -72 -21
-28 -28 -31 -74 -8 -114 23 -40 51 -54 103 -52 59 1 325 55 373 75 21 9 52 16
70 16 18 0 67 9 108 20 41 11 87 20 101 20 15 0 42 6 60 14 19 8 60 17 92 21
47 6 57 5 57 -7 0 -17 -26 -54 -75 -108 -18 -19 -49 -66 -70 -105 -21 -38 -56
-91 -79 -116 -64 -72 -106 -127 -106 -138 0 -5 -13 -18 -30 -28 -16 -9 -30
-22 -30 -28 0 -5 -41 -50 -92 -100 -51 -49 -119 -118 -151 -152 -33 -35 -62
-63 -67 -63 -14 0 -308 -295 -323 -325 -8 -16 -30 -50 -48 -75 -19 -25 -32
-55 -30 -67 1 -11 -3 -24 -8 -28 -14 -8 -14 -51 -1 -76 18 -33 88 -61 169 -66
67 -5 87 -2 169 26 51 17 104 31 118 31 14 0 35 7 47 15 12 8 56 21 97 30 41
8 95 22 120 29 60 19 247 72 285 81 25 6 137 20 306 39 14 1 30 6 36 9 6 4 22
7 34 7 13 -1 69 4 124 9 55 5 173 12 262 15 l161 6 13 -37 c25 -79 86 -150
136 -159 18 -3 37 -12 44 -20 7 -9 32 -14 72 -14 52 0 74 7 155 47 130 64 202
136 269 268 l51 100 -18 35 c-25 48 -70 51 -111 6 -16 -17 -29 -39 -29 -48 0
-15 -35 -76 -59 -103 -25 -29 -114 -90 -131 -90 -10 0 -28 -9 -39 -19 -26 -24
-90 -26 -123 -4 -39 26 -62 84 -66 170 -2 43 -7 78 -11 78 -4 0 -2 34 4 75 7
56 15 78 30 88 11 8 62 17 115 21 52 4 99 11 105 17 5 5 21 9 35 9 14 0 66 14
115 30 49 17 103 30 121 30 26 0 37 7 54 35 28 45 21 82 -17 91 -24 6 -165 -7
-278 -26 -27 -5 -90 -10 -140 -12 l-89 -3 -9 43 c-4 23 -4 61 0 84 7 33 15 45
43 59 51 26 268 89 320 93 25 2 58 9 73 15 16 6 85 11 155 12 72 0 142 5 162
12 31 11 35 16 33 45 0 19 -4 36 -8 40 -4 4 -136 7 -293 6 -242 0 -297 -3
-352 -18 -68 -18 -189 -80 -203 -103 -4 -7 -21 -13 -36 -13 -53 0 -61 -23 -61
-166 0 -107 -4 -136 -20 -173 -14 -31 -20 -63 -19 -110 1 -36 -1 -91 -4 -121
-3 -30 -6 -69 -6 -86 l-1 -30 -92 4 c-51 3 -95 7 -98 11 -10 12 -201 12 -277
0 -43 -7 -100 -13 -128 -14 -61 -3 -271 -42 -296 -55 -10 -6 -29 -10 -42 -10
-14 0 -41 -7 -60 -15 -20 -8 -51 -15 -70 -15 -18 0 -37 -4 -43 -9 -12 -13
-141 -49 -239 -68 -44 -8 -93 -21 -110 -28 -58 -24 -160 -55 -182 -55 -30 0
-29 17 4 79 21 42 126 153 236 249 62 54 387 396 387 407 0 8 4 15 9 15 5 0
45 44 89 98 44 53 89 106 101 116 11 11 21 26 21 35 0 9 20 37 45 63 24 26 47
57 50 70 4 13 21 32 38 43 18 11 38 33 45 48 13 26 76 94 114 124 19 14 33 97
19 120 -7 13 -5 23 6 36 15 16 15 18 -3 32 -29 22 -79 17 -179 -17z"/>
<path d="M4494 1266 c-16 -35 -47 -76 -81 -109 -30 -28 -65 -62 -77 -73 -33
-33 -204 -152 -229 -160 -12 -3 -30 -15 -40 -25 -10 -11 -22 -17 -27 -14 -11
7 -5 164 8 250 8 48 7 62 -4 71 -8 6 -14 19 -14 28 0 9 -6 16 -14 16 -7 0 -19
7 -26 15 -18 21 -45 19 -75 -8 -21 -18 -28 -33 -31 -75 -2 -29 -5 -56 -8 -60
-16 -26 -59 -395 -60 -522 -1 -80 -6 -169 -11 -197 -5 -34 -4 -53 2 -53 5 0
22 -24 37 -54 19 -38 35 -56 52 -60 31 -8 44 -1 44 25 0 11 7 19 18 19 21 1
54 27 77 62 19 30 14 58 -16 97 -22 28 -25 61 -5 61 7 0 25 -9 39 -20 14 -11
31 -20 39 -20 17 0 118 -47 138 -65 8 -7 51 -31 95 -54 44 -22 85 -45 91 -50
7 -6 41 -22 75 -37 55 -23 78 -26 165 -26 56 0 111 5 122 11 12 6 46 11 77 11
42 0 65 6 95 25 45 28 44 27 28 71 -13 38 -45 46 -114 31 -52 -12 -234 7 -276
29 -14 8 -31 14 -36 14 -6 0 -34 16 -63 35 -30 19 -59 35 -66 35 -7 0 -35 16
-61 35 -27 19 -80 49 -118 67 -83 38 -174 103 -174 123 0 8 4 15 9 15 4 0 29
18 54 40 25 22 52 40 61 40 9 0 16 4 16 8 0 5 46 39 103 77 185 125 353 319
332 384 -6 21 -17 26 -83 36 l-42 7 -26 -56z"/>
<path d="M3315 1274 c-104 -8 -173 -26 -252 -67 -46 -23 -83 -47 -83 -54 0 -8
-12 -13 -30 -13 -17 0 -38 -9 -51 -22 -20 -22 -21 -30 -15 -136 5 -101 3 -119
-16 -165 -16 -37 -23 -77 -24 -137 -1 -47 -4 -141 -7 -210 -4 -119 -3 -129 26
-203 33 -88 71 -139 119 -157 18 -6 45 -18 60 -26 14 -8 51 -14 81 -14 45 0
70 8 140 44 145 74 191 116 260 240 66 118 68 125 48 166 -13 28 -22 35 -46
36 -35 1 -95 -49 -95 -79 0 -10 -8 -31 -19 -45 -10 -15 -20 -32 -22 -38 -8
-22 -133 -114 -154 -114 -13 0 -28 -6 -34 -14 -18 -22 -69 -27 -106 -12 -49
21 -77 81 -83 179 -2 42 -8 77 -13 77 -5 0 -4 12 1 26 6 14 10 47 10 74 0 44
3 51 28 64 15 7 71 17 125 21 53 4 97 11 97 16 0 5 12 9 26 9 15 0 69 14 121
30 51 17 107 30 123 30 55 0 94 97 48 121 -22 12 -62 10 -218 -11 -162 -22
-294 -29 -302 -17 -4 7 -8 45 -8 84 0 72 0 73 33 90 49 26 276 93 327 97 25 2
58 9 73 15 16 6 87 11 158 11 93 0 140 4 166 15 33 14 35 18 29 47 -3 17 -8
33 -10 35 -5 6 -452 12 -511 7z"/>
</g>
</svg>
